<?xml version="1.0" standalone="no"?>
<!DOCTYPE svg PUBLIC "-//W3C//DTD SVG 1.1//EN" "http://www.w3.org/Graphics/SVG/1.1/DTD/svg11.dtd">
<svg xmlns="http://www.w3.org/2000/svg" version="1.1">
    <defs>
        <symbol id="icon-bell" class="h-5 w-5" viewBox="0 0 20 20" fill="currentColor">
            <path
                d="M10 2a6 6 0 00-6 6v3.586l-.707.707A1 1 0 004 14h12a1 1 0 00.707-1.707L16 11.586V8a6 6 0 00-6-6zM10 18a3 3 0 01-3-3h6a3 3 0 01-3 3z" />
        </symbol>
        <symbol id="icon-message" class="h-6 w-6" fill="none" viewBox="0 0 24 24" stroke="currentColor">
            <path stroke-linecap="round" stroke-linejoin="round" stroke-width="2"
                d="M7 8h10M7 12h4m1 8l-4-4H5a2 2 0 01-2-2V6a2 2 0 012-2h14a2 2 0 012 2v8a2 2 0 01-2 2h-3l-4 4z" />
        </symbol>
        <symbol id="icon-thumbs-up" class="h-6 w-6" fill="none" viewBox="0 0 24 24" stroke="currentColor">
            <path stroke-linecap="round" stroke-linejoin="round" stroke-width="2"
                d="M14 10h4.764a2 2 0 011.789 2.894l-3.5 7A2 2 0 0115.263 21h-4.017c-.163 0-.326-.02-.485-.06L7 20m7-10V5a2 2 0 00-2-2h-.095c-.5 0-.905.405-.905.905 0 .714-.211 1.412-.608 2.006L7 11v9m7-10h-2M7 20H5a2 2 0 01-2-2v-6a2 2 0 012-2h2.5" />
        </symbol>
        <symbol id="icon-clipboard" class="h-6 w-6" fill="none" viewBox="0 0 24 24" stroke="currentColor">
            <path stroke-linecap="round" stroke-linejoin="round" stroke-width="2"
                d="M9 5H7a2 2 0 00-2 2v12a2 2 0 002 2h10a2 2 0 002-2V7a2 2 0 00-2-2h-2M9 5a2 2 0 002 2h2a2 2 0 002-2M9 5a2 2 0 012-2h2a2 2 0 012 2m-3 7h3m-3 4h3m-6-4h.01M9 16h.01" />
        </symbol>
        <symbol id="icon-plus-circle" class="h-6 w-6" fill="none" viewBox="0 0 24 24" stroke="currentColor">
            <path stroke-linecap="round" stroke-linejoin="round" stroke-width="2"
                d="M12 9v3m0 0v3m0-3h3m-3 0H9m12 0a9 9 0 11-18 0 9 9 0 0118 0z" />
        </symbol>
        <symbol id="icon-logout" class="h-6 w-6" fill="none" viewBox="0 0 24 24" stroke="currentColor">
            <path stroke-linecap="round" stroke-linejoin="round" stroke-width="2"
                d="M17 16l4-4m0 0l-4-4m4 4H7m6 4v1a3 3 0 01-3 3H6a3 3 0 01-3-3V7a3 3 0 013-3h4a3 3 0 013 3v1" />
        </symbol>
        <symbol id="icon-profile" class="h-6 w-6" fill="none" viewBox="0 0 24 24" stroke="currentColor">
            <path stroke-linecap="round" stroke-linejoin="round" stroke-width="2"
                d="M5.121 17.804A13.937 13.937 0 0112 16c2.5 0 4.847.655 6.879 1.804M15 10a3 3 0 11-6 0 3 3 0 016 0zm6 2a9 9 0 11-18 0 9 9 0 0118 0z" />
        </symbol>
        <symbol id="icon-plus" class="h-6 w-6" fill="none" viewBox="0 0 24 24" stroke="currentColor">
            <path stroke-linecap="round" stroke-linejoin="round" stroke-width="2" d="M12 4v16m8-8H4" />
        </symbol>
        <symbol id="icon-photograph" class="h-6 w-6" fill="none" viewBox="0 0 24 24" stroke="currentColor">
            <path stroke-linecap="round" stroke-linejoin="round" stroke-width="2"
                d="M4 16l4.586-4.586a2 2 0 012.828 0L16 16m-2-2l1.586-1.586a2 2 0 012.828 0L20 14m-6-6h.01M6 20h12a2 2 0 002-2V6a2 2 0 00-2-2H6a2 2 0 00-2 2v12a2 2 0 002 2z" />
        </symbol>
        <symbol id="icon-usa-mono" viewBox="0 0 100 100" fill="none">
            <path
                d="M50 3.125C24.1125 3.125 3.125 24.1125 3.125 50C3.125 75.8875 24.1125 96.875 50 96.875C75.8875 96.875 96.875 75.8875 96.875 50C96.875 24.1125 75.8875 3.125 50 3.125ZM30.0187 88.9C26.3712 87.0188 23.0056 84.6351 20.0203 81.8187H79.9812C76.9957 84.6348 73.6302 87.0184 69.9828 88.9H30.0187ZM13.9375 74.7328C12.4023 72.5003 11.0784 70.1296 9.98281 67.6516H90.0187C88.9226 70.1293 87.5986 72.4999 86.0641 74.7328H13.9375V74.7328ZM7.54844 60.5703C6.97181 58.245 6.58822 55.876 6.40156 53.4875H93.6C93.4133 55.876 93.0297 58.245 92.4531 60.5703H7.54844V60.5703ZM13.3453 26.1578H13.9359L14.45 24.5484C14.5484 24.4109 14.6422 24.2703 14.7437 24.1344L15.3875 26.1578H17.7344L15.8359 27.6609L16.5625 29.9891L14.6625 28.6063L12.7625 30.025L13.4891 27.6563L12.7547 27.0766C12.9469 26.7688 13.1469 26.4641 13.3453 26.1578V26.1578ZM16.5625 48.4266L14.6625 47.0437L12.7625 48.4625L13.4891 46.0938L11.5891 44.5938H13.9359L14.6625 42.3156L15.3875 44.5938H17.7344L15.8359 46.0969L16.5625 48.4266V48.4266ZM45.3906 14.6609L46.1172 16.9391H48.4641L46.5641 18.4422L47.2906 20.7719L45.3906 19.3875L43.4906 20.8062L44.2172 18.4391L42.3172 16.9375H44.6641L45.3906 14.6609V14.6609ZM44.6641 35.3766L45.3906 33.1L46.1172 35.3766H48.4641L46.5641 36.8813L47.2906 39.2094L45.3906 37.825L43.4906 39.2437L44.2172 36.8766L42.3172 35.375H44.6641V35.3766ZM40.4172 27.6609L41.1438 29.9891L39.2453 28.6063L37.3453 30.025L38.0703 27.6563L36.1719 26.1562H38.5188L39.2453 23.8781L39.9703 26.1562H42.3172L40.4172 27.6609V27.6609ZM41.1438 48.4266L39.2453 47.0437L37.3453 48.4625L38.0703 46.0938L36.1719 44.5938H38.5188L39.2453 42.3156L39.9703 44.5938H42.3172L40.4172 46.0969L41.1438 48.4266V48.4266ZM34.2734 18.4422L35 20.7719L33.1 19.3875L31.2 20.8062L31.9266 18.4391L30.0266 16.9375H32.3734L33.1 14.6594L33.8266 16.9375H36.1734L34.2734 18.4422V18.4422ZM32.3734 35.3766L33.1 33.1L33.8266 35.3766H36.1734L34.2734 36.8813L35 39.2094L33.1 37.825L31.2 39.2437L31.9266 36.8766L30.0266 35.375H32.3734V35.3766ZM28.1266 27.6609L28.8531 29.9891L26.9531 28.6063L25.0531 30.025L25.7797 27.6563L23.8797 26.1562H26.2266L26.9531 23.8781L27.6797 26.1562H30.0266L28.1266 27.6609V27.6609ZM26.2266 44.5953L26.9531 42.3172L27.6797 44.5953H30.0266L28.1266 46.0984L28.8531 48.4266L26.9531 47.0437L25.0531 48.4625L25.7797 46.0938L23.8797 44.5938H26.2266V44.5953ZM21.9797 36.8813L22.7062 39.2094L20.8062 37.825L18.9063 39.2437L19.6328 36.8766L17.7328 35.375H20.0797L20.8062 33.0984L21.5328 35.375H23.8797L21.9797 36.8813V36.8813ZM50 39.3203H92.425C93.0031 41.6141 93.3906 43.9813 93.5891 46.4016H50V39.3203ZM50 32.2375V25.1563H85.9828C87.5272 27.3883 88.8611 29.7589 89.9672 32.2375H50V32.2375ZM50 18.0703V10.9875H69.7625C73.4465 12.8609 76.8473 15.2454 79.8641 18.0703H50ZM39.8813 7.44375L39.9703 7.72187H42.3172L40.4172 9.225L41.1438 11.5531L39.2453 10.1687L37.3453 11.5891L38.0703 9.22031L36.8656 8.26719C37.8608 7.95723 38.8666 7.68258 39.8813 7.44375V7.44375ZM21.5328 16.9391H23.8797L21.9797 18.4422L22.7062 20.7719L20.8062 19.3875L18.9063 20.8062L19.5859 18.5937C20.2062 17.9922 20.8469 17.4094 21.5031 16.8453L21.5328 16.9391V16.9391ZM9.24219 35.3766H11.5891L9.68906 36.8813L10.4156 39.2094L8.51562 37.825L7.84375 38.3266C8.1875 37.0906 8.57656 35.8766 9.02344 34.6859L9.24219 35.3766"
                fill="currentColor" />
        </symbol>
        <symbol id="icon-mexico-mono" viewBox="0 0 100 100" fill="none">
            <path
                d="M62.7078 51.7969C63.8937 50.9359 63.7219 50.6578 63.4344 49.4703C63.3359 49.0641 63.1953 49.5766 63.1766 49.7875C63.1205 49.377 62.9795 48.9826 62.7625 48.6297C62.3187 49.0844 62.1937 49.675 62.1484 50.2891C62.0484 49.8344 61.85 49.3828 61.3953 49.2047H61.3922C61.6516 49.6297 61.5578 49.9359 61.5109 50.4125C61.4375 51.1016 61.9844 51.4734 62 52.1484C62.0297 52.8109 61.7281 53.2406 61.2437 53.6484C61.2766 53.4906 61.2656 53.3359 61.3109 53.1766C59.7562 53.7172 60.0656 54.6172 60.1281 55.8875C60.1922 57.2297 59.3797 56.9828 58.4422 57.6937C58.5207 57.5301 58.5587 57.35 58.553 57.1686C58.5473 56.9873 58.498 56.8099 58.4094 56.6516L58.4078 56.6547C58.3391 57.5094 57.2281 57.6437 56.9922 58.4094C56.8734 58.7953 56.9344 59.2609 56.5922 59.5531C56.3047 59.7391 55.8531 59.9953 55.7781 60.3594C55.4375 60.1922 55.0953 60.1984 54.7359 60.2672C54.9 60.1785 55.0417 60.0534 55.15 59.9016C53.5844 59.2 53.1312 60.7547 51.8172 61.0094C51.3937 60.9813 50.3031 60.3969 50.2531 61.0422C51.5641 61.0328 52.2625 62.2516 53.3953 62.2891C54.3547 62.3219 55.0937 61.45 56.0531 61.4469L56.0547 61.4438C55.9656 61.3813 55.4344 61.15 55.0453 61.1531C55.7719 60.7391 56.2516 59.7484 57.1453 59.7437C58.7547 59.7312 59.4203 59.3844 59.9453 57.9187C59.7837 57.9078 59.622 57.9395 59.4766 58.0109C59.4766 57.3328 60.1625 56.6797 60.6797 56.3047C62.2641 56.0109 61.9984 54.7 62.9531 53.7375C62.5766 53.7562 62.3109 53.9422 62.0422 54.2172C62.0984 53.2984 61.8203 52.4359 62.7078 51.7969"
                fill="currentColor" />
            <path d="M63.4344 49.4719C63.475 49.6359 63.4156 49.3875 63.4344 49.4719Z" fill="currentColor" />
            <path
                d="M48.1844 61.0109C46.8719 60.7563 46.4187 59.2016 44.8531 59.9031C44.9586 60.0575 45.1009 60.1832 45.2672 60.2687C44.9047 60.2 44.5625 60.1922 44.2266 60.3609C44.1469 59.9984 43.6969 59.7422 43.4109 59.5547C43.0687 59.2609 43.1281 58.7969 43.0094 58.4109C42.775 57.6453 41.6609 57.5109 41.5953 56.6562L41.5937 56.6531C41.5058 56.8117 41.457 56.989 41.4513 57.1702C41.4456 57.3515 41.4832 57.5315 41.5609 57.6953C40.625 56.9844 39.8094 57.2313 39.875 55.8891C39.9359 54.6188 40.2437 53.7172 38.6922 53.1781C38.7375 53.3375 38.725 53.4922 38.7578 53.65C38.2719 53.2422 37.9719 52.8125 38 52.15C38.0156 51.4734 38.5594 51.1031 38.4906 50.4141C38.4406 49.9375 38.3469 49.6328 38.6078 49.2063H38.6047C38.15 49.3844 37.9531 49.8359 37.8484 50.2906C37.8062 49.6781 37.6812 49.0859 37.2391 48.6313H37.2375C37.0203 48.9797 36.8812 49.3813 36.8219 49.7891C36.8031 49.5781 36.6641 49.0672 36.5641 49.4719C36.2781 50.6594 36.1062 50.9375 37.2922 51.7984C38.1781 52.4359 37.9 53.3 37.9578 54.2188C37.6906 53.9438 37.4234 53.7578 37.0469 53.7391C38.0047 54.7 37.7391 56.0125 39.3219 56.3063C39.8391 56.6813 40.5266 57.3344 40.5266 58.0125C40.3804 57.9415 40.2184 57.9098 40.0562 57.9203C40.5812 59.3859 41.2469 59.7328 42.8578 59.7453C43.7484 59.75 44.2297 60.7422 44.9594 61.1547C44.5687 61.1516 44.0344 61.3828 43.95 61.4453V61.4484C44.9109 61.4516 45.65 62.325 46.6062 62.2906C47.7375 62.2547 48.4406 61.0344 49.7516 61.0438C49.7 60.3984 48.6094 60.9828 48.1844 61.0109"
                fill="currentColor" />
            <path
                d="M50.4922 59.8328C50.7781 59.8328 51.3297 59.8859 51.5656 59.6438C51.6125 59.6328 51.6594 59.6281 51.7078 59.6156C51.9891 59.7922 52.2375 59.6469 52.3375 59.4141C52.9359 59.2123 53.5183 58.9658 54.0797 58.6766C53.9558 58.6426 53.8401 58.5839 53.7396 58.5038C53.6392 58.4238 53.556 58.3241 53.4953 58.2109C53.5609 57.8922 54.6656 57.6578 54.9531 57.6172L54.975 57.2469C54.3578 57.4391 53.3797 57.6047 52.2828 57.6875C52.5125 57.3 52.2438 56.675 51.7422 56.9141C51.5141 57.0266 51.5797 57.0703 51.3656 56.9828C51.4831 56.7703 51.6573 56.5945 51.8688 56.475C52.1685 56.3038 52.5034 56.2034 52.8478 56.1815C53.1923 56.1595 53.5372 56.2166 53.8562 56.3484C54.7937 56.725 58.1672 56.6125 57.1281 54.8219C55.8375 53.2219 55.2203 55.5828 53.8422 55.5094C53.9469 54.9531 53.7313 54.6391 53.3828 54.4609C53.8734 54.6234 54.3328 54.8859 53.9813 55.1672C54.1578 55.2484 54.4406 55.2594 54.5625 55.0703C55.1016 54.2625 53.5516 53.8953 52.8125 53.2531C53.2156 53.0984 53.6984 52.9656 53.8656 53.1641C54.2 53.5625 54.5406 53.1516 54.7844 53.3344C55.1156 53.5844 56.3078 53.3766 56.6672 53.1812C56.7672 53.1266 58.3437 52.8094 58.0984 52.5797C58.0828 52.5625 58.0891 52.5672 58.0984 52.5781C57.3625 51.8938 56.4719 51.3219 55.6687 50.7266C54.9328 50.1781 54.2 49.6281 53.4688 49.075C53.0891 48.7891 53.1016 48.2203 52.975 47.7031C54.3469 49.0734 55.7906 49.8453 55.5969 47.1938C56.4938 47.8859 58.3297 52.1953 58.5297 52.1953C58.9391 52.1953 58.6031 47.5375 58.5781 47.1359C59.2531 47.7125 59.1391 52.8109 59.2703 52.8063C59.925 52.7813 61.0734 46.0031 58.4734 42.5875C57.7078 41.5813 54.8219 38.0391 50.6078 37.7063C50.1375 37.6688 48.9313 38.1078 48.5344 38.3594C47.1609 39.2359 50.0781 39.9875 50.2469 40.7109C50.3047 40.9641 50.3469 41.2266 50.3828 41.4922C49.9781 40.6891 49.3891 40.2094 49.3688 40.0297C48.6516 40.3734 47.3406 39.8281 47.2266 39.1172C47.1577 39.3854 47.0192 39.6307 46.825 39.8281C46.7938 39.3672 46.7016 39.375 46.5484 39.0781C46.5875 39.5297 46.5609 40.1437 46.0781 40.3109C46.3063 40.0641 46.1391 39.6375 45.9375 39.4578C45.9691 39.6598 45.9566 39.8662 45.9007 40.0628C45.8449 40.2595 45.7471 40.4417 45.6141 40.5969C45.6969 40.2766 45.4953 40.0844 45.45 39.8719C45.3547 40.8391 44.1859 41.3812 44.7047 41.7828C44.5297 41.7937 44.3766 41.8141 44.2938 41.8453C44.2109 42.0187 44.0344 42.1891 43.875 42.3687C43.6313 42.4516 43.2094 42.5312 42.9828 42.4125C42.4688 42.05 44.0344 41.5094 43.8734 41.4406C43.8344 41.4234 42.3188 42.2437 42.9813 41.3422C43.1766 41.0766 43.4281 40.6547 43.5719 40.3672C43.7438 40.0187 43.1094 40.4094 43.1547 40.4047C42.9469 40.4297 42.8547 40.3656 42.6609 40.525C41.7531 41.2375 42.0109 41.6406 42.1313 42.6344C42.1688 43.5094 42.9953 43.3609 43.6734 43.3109C43.8844 43.6594 44.4188 44.1031 44.7234 43.7656C44.6267 43.7003 44.5394 43.622 44.4641 43.5328C44.6484 43.6656 44.8219 43.825 44.8203 43.9734C44.3641 44.9781 43.0344 45.1531 42.6391 46.2172C42.3359 47.0313 42.475 48.2359 43.2359 48.7516C43.6453 49.0297 44.0391 49.0422 44.4875 49.0016C45.5422 48.9109 45.325 49.0281 45.25 49.2562C44.6938 49.325 43.9141 49.8094 43.8297 50.3531C43.3281 50.4781 43.1891 50.0422 43.0844 49.6109C42.9141 48.9109 41.8234 48.5937 41.8234 47.9187C41.8219 47.2531 42.4453 46.7094 41.9313 46.0578C41.5031 45.5141 40.7703 45.1594 40.6797 45.4906C40.5953 45.8031 41.3344 45.8484 41.3344 46.6078C41.3375 47.5938 40.4313 48.2578 41.4672 49.1234C42.2609 49.7875 42.2406 51.5406 43.4109 51.5406C43.775 51.5406 44.0938 51.4406 44.2797 51.1937C44.8906 51.2906 46.1656 50.9984 46.3422 50.7812C46.4344 50.975 46.5453 51.0938 46.6625 51.1781C46.3766 51.4266 47.2391 51.8687 47.4859 51.9437C48.6453 52.3 49.5797 51.2625 49.5734 51.1C49.5719 51.0984 51.0047 52.4859 51.7578 53.15C51.4547 53.4516 51.1109 53.6781 50.7469 53.4797C50.4734 53.3313 49.7172 53.7125 49.6531 54.1375C49.4953 54.1091 49.3449 54.0491 49.2109 53.9609C48.2672 53.3078 47.0094 52.9984 46.3297 54.1438C45.6578 53.2953 44.0375 52.2719 43.0828 53.2875C43.075 52.3312 42.2125 51.0062 41.1141 51.15C39.9141 51.3078 40.3875 52.8547 40.9922 53.3781C41.4734 53.7953 42.1078 53.9875 42.7391 53.9625C42.6984 54.2219 42.8578 54.4484 43.0438 54.6109C43.7578 55.2437 45.3563 55.4531 46.1156 54.8C46.1781 56.3766 49.1328 56.3469 49.9406 55.5297C49.8 55.8594 49.6766 56.3547 49.6703 56.8C49.3844 56.8 49.0625 56.8141 48.7766 56.8297C48.55 56.8391 48.3219 56.7969 48.0906 56.8203C47.8438 56.8453 47.7453 56.7344 47.5422 56.6609C47.2594 56.5625 47.0313 56.7812 46.9641 57.0422C46.9547 57.0812 46.9641 57.1094 46.9656 57.1406C46.4156 56.9062 45.9813 56.5953 45.7422 56.1859C45.0688 57.0437 44.0797 56.4156 42.9094 55.7187C43.1359 56.0078 43.7281 57.5703 43.6297 57.3781C43.9375 57.5016 45.95 57.9312 45.9781 58.4219C45.9318 58.5256 45.861 58.6165 45.7717 58.6868C45.6824 58.757 45.5774 58.8044 45.4656 58.825C46.0266 59.0344 46.5406 59.2031 47.0359 59.3562C47.1234 59.6156 47.4344 59.7594 47.7203 59.5563C47.8 59.5766 47.875 59.5875 47.9531 59.6047C48.1672 59.7953 48.575 59.7922 48.8375 59.8016C48.9609 59.8078 49.0875 59.8047 49.2125 59.8078C49.575 59.8406 49.9391 59.8469 50.3016 59.8266C50.3703 59.8297 50.4312 59.8328 50.4922 59.8328V59.8328ZM42.1219 42.5281C42.1172 42.4969 42.1172 42.4922 42.1219 42.5281V42.5281ZM45.4688 42.8625C45.4344 42.8297 45.4141 42.7703 45.3719 42.7469C45.3125 42.7141 45.2734 42.7172 45.2203 42.6969C45.2453 42.6953 45.2734 42.6891 45.2969 42.6906C45.3953 42.6922 45.4406 42.7781 45.4688 42.8625V42.8625ZM43.5813 47.1406C43.5594 46.8062 45.3453 44.9828 45.5109 44.7937C45.8781 44.3703 45.8938 43.5453 45.6328 43.0609C45.9781 43.0875 46.8609 42.6922 46.8125 42.3844C46.8078 42.3578 46.7828 42.3375 46.7734 42.3141C46.9172 42.4203 47.1266 42.6641 47.1922 42.6531C47.1359 42.8766 46.6125 43.4344 47.0266 43.5C46.9438 43.6297 46.3656 44.6484 46.3563 44.6469C46.7922 44.7094 46.4359 44.975 46.2688 45.3016C45.8453 46.1422 46.3359 46.9 46.4625 47.7656C46.4188 47.4703 46.975 47.9516 46.9938 48.3625C47.0234 49.0328 47.6328 49.2109 47.7891 49.7484C47 49.0531 46.8703 49.7594 47.7438 50.1828C47.5528 50.1884 47.3689 50.2565 47.2203 50.3766C46.9426 50.0799 46.7037 49.7491 46.5094 49.3922C46.4672 48.9297 46.4656 48.4687 46.0203 48.0906C45.2844 47.4672 43.6766 48.6844 43.5813 47.1406V47.1406ZM52.0234 54.3156C51.8498 54.3385 51.6777 54.3714 51.5078 54.4141C51.6141 54.3578 51.8156 54.3297 52.0234 54.3156Z"
                fill="currentColor" />
            <path d="M57.1297 54.8234C57.1516 54.8594 57.1594 54.8719 57.1656 54.8859L57.1297 54.8234Z"
                fill="currentColor" />
            <path d="M57.1656 54.8859C57.1781 54.9078 57.1812 54.9125 57.1656 54.8859Z" fill="currentColor" />
            <path
                d="M50 3.125C24.1125 3.125 3.125 24.1125 3.125 50C3.125 75.8875 24.1125 96.875 50 96.875C75.8875 96.875 96.875 75.8875 96.875 50C96.875 24.1125 75.8875 3.125 50 3.125ZM34.6344 90.9578V9.04219C39.4188 7.24219 44.5953 6.25 50 6.25C55.4047 6.25 60.5797 7.24219 65.3641 9.04219V90.9578C60.5797 92.7578 55.4047 93.75 50 93.75C44.5953 93.75 39.4188 92.7578 34.6344 90.9578Z"
                fill="currentColor" />
        </symbol>
        <symbol id="icon-japan-mono" viewBox="0 0 100 100" fill="none">
            <path
                d="M50 68.4375C60.1827 68.4375 68.4375 60.1827 68.4375 50C68.4375 39.8173 60.1827 31.5625 50 31.5625C39.8172 31.5625 31.5625 39.8173 31.5625 50C31.5625 60.1827 39.8172 68.4375 50 68.4375Z"
                fill="currentColor" />
            <path
                d="M50 3.125C24.1125 3.125 3.125 24.1125 3.125 50C3.125 75.8875 24.1125 96.875 50 96.875C75.8875 96.875 96.875 75.8875 96.875 50C96.875 24.1125 75.8875 3.125 50 3.125ZM50 93.75C25.8766 93.75 6.25 74.1234 6.25 50C6.25 25.8766 25.8766 6.25 50 6.25C74.1234 6.25 93.75 25.8766 93.75 50C93.75 74.1234 74.1234 93.75 50 93.75Z"
                fill="currentColor" />
        </symbol>
        <symbol id="icon-india-mono" viewBox="0 0 100 100" fill="none">
            <path
                d="M50 62.2922C56.7906 62.2922 62.2922 56.7906 62.2922 50C62.2922 43.2094 56.7906 37.7094 50 37.7094C43.2094 37.7094 37.7078 43.2094 37.7078 50C37.7078 56.7906 43.2094 62.2922 50 62.2922ZM40.7734 46.1766C40.8481 45.9949 40.8495 45.7913 40.7772 45.6086C40.705 45.4259 40.5647 45.2783 40.386 45.1969C40.4828 45.0031 40.5828 44.8125 40.6906 44.6266L46.2438 48.275L47.911 49.0406C47.8865 49.0937 47.8646 49.148 47.8453 49.2031L46.111 48.5609L39.6203 47.2188C39.6766 47.0109 39.7328 46.8047 39.8016 46.6016C39.9871 46.6699 40.1919 46.6639 40.373 46.5846C40.5542 46.5054 40.6977 46.3592 40.7734 46.1766V46.1766ZM45.1953 40.3891C45.273 40.5755 45.4216 40.7235 45.6084 40.8004C45.7952 40.8774 46.0049 40.8769 46.1914 40.7992C46.3779 40.7215 46.5259 40.5729 46.6028 40.3861C46.6797 40.1993 46.6793 39.9896 46.6016 39.8031C46.8047 39.7344 47.0125 39.6781 47.2203 39.6219L48.5641 46.1266L49.2016 47.8469C49.1469 47.8688 49.0938 47.8875 49.0391 47.9125L48.2672 46.2328L44.6266 40.6938C44.8126 40.5857 45.0023 40.4841 45.1953 40.3891V40.3891ZM53.8203 40.7719C54.0017 40.8489 54.2059 40.8518 54.3894 40.7799C54.5728 40.7081 54.7208 40.5672 54.8016 40.3875C54.9953 40.4844 55.1859 40.5859 55.3734 40.6922L51.7219 46.2438L50.9578 47.9109C50.9063 47.8859 50.8516 47.8672 50.7969 47.8469L51.4406 46.1109L52.7813 39.6234C52.9891 39.6781 53.1938 39.7344 53.3969 39.8016C53.3297 39.9868 53.3362 40.1907 53.415 40.3712C53.4938 40.5518 53.6389 40.6952 53.8203 40.7719V40.7719ZM59.225 46.1766C59.3004 46.3594 59.4441 46.5057 59.6255 46.5844C59.8069 46.6632 60.0118 46.6682 60.1969 46.5984C60.2656 46.8031 60.3234 47.0125 60.3781 47.2203L53.8735 48.5594L52.15 49.2C52.1281 49.1453 52.1109 49.0938 52.0859 49.0406L53.7672 48.2672L59.3063 44.625C59.4125 44.8109 59.5141 45 59.6094 45.1922C59.4322 45.2766 59.2937 45.4254 59.2223 45.6083C59.1509 45.7912 59.1519 45.9944 59.225 46.1766V46.1766ZM59.225 53.8203C59.0688 54.2016 59.2422 54.6328 59.6125 54.8016C59.5165 54.9951 59.4149 55.1858 59.3078 55.3734L53.7563 51.7219L52.0875 50.9578C52.1125 50.9047 52.1313 50.8516 52.1516 50.7953L53.8891 51.4391L60.3781 52.7812C60.3246 52.9878 60.2647 53.1925 60.1985 53.3953C60.0126 53.3285 59.8082 53.3353 59.6272 53.4143C59.4462 53.4933 59.3023 53.6386 59.225 53.8203V53.8203ZM54.1297 50.3844L60.7547 50L54.1141 49.6125L52.2797 49.7844C52.275 49.7281 52.2735 49.6703 52.2625 49.6156L54.0891 49.3047L60.3781 47.2219C60.4328 47.4281 60.4938 47.6328 60.5375 47.8422C60.3419 47.8742 60.1663 47.9808 60.0477 48.1397C59.9291 48.2985 59.8767 48.4971 59.9016 48.6938C59.9266 48.8882 60.0261 49.0654 60.1791 49.1881C60.3321 49.3107 60.5266 49.3693 60.7219 49.3516C60.7359 49.5672 60.7547 49.7813 60.7547 50C60.7547 50.2172 60.7359 50.4281 60.7219 50.6422C60.5264 50.6268 60.3325 50.6866 60.1797 50.8095C60.027 50.9323 59.9269 51.1089 59.9 51.3031C59.8736 51.5003 59.9255 51.6999 60.0447 51.8592C60.164 52.0184 60.3409 52.1245 60.5375 52.1547C60.4953 52.3688 60.4344 52.575 60.3781 52.7812L54.0734 50.6891L52.2625 50.3828C52.2735 50.3266 52.275 50.2703 52.2797 50.2125L54.1297 50.3844ZM54.8063 59.6125C54.7239 59.4338 54.5757 59.2937 54.3926 59.2215C54.2095 59.1493 54.0056 59.1506 53.8234 59.225C53.6407 59.3011 53.4946 59.4449 53.4156 59.6264C53.3367 59.8079 53.3311 60.0129 53.4 60.1984C53.1969 60.2656 52.9875 60.3234 52.7797 60.3797L51.4375 53.8734L50.7985 52.1484C50.8531 52.1281 50.9063 52.1094 50.9594 52.0844L51.7328 53.7641L55.3734 59.3078C55.1875 59.4156 54.9985 59.5172 54.8063 59.6125V59.6125ZM46.1797 59.2281C45.9978 59.1522 45.7935 59.1499 45.6099 59.2216C45.4263 59.2933 45.2777 59.4334 45.1953 59.6125C45.0026 59.5168 44.813 59.4152 44.6266 59.3078L48.2781 53.7531L49.0422 52.0875C49.0953 52.1125 49.1484 52.1312 49.2047 52.1516L48.5625 53.8891L47.2188 60.3781C47.0117 60.3248 46.8064 60.2649 46.6031 60.1984C46.6711 60.0133 46.665 59.8091 46.5862 59.6283C46.5073 59.4475 46.3617 59.3042 46.1797 59.2281V59.2281ZM40.7734 53.8234C40.6977 53.6408 40.5541 53.4947 40.3729 53.4158C40.1917 53.3368 39.9869 53.3311 39.8016 53.4C39.7348 53.1957 39.6743 52.9893 39.6203 52.7812L46.125 51.4391L47.8469 50.8016C47.8672 50.8547 47.8875 50.9094 47.9125 50.9625L46.2344 51.7344L40.6906 55.3734C40.5837 55.1881 40.4827 54.9995 40.3875 54.8078C40.5658 54.7245 40.7053 54.5759 40.7771 54.3927C40.849 54.2095 40.8476 54.0057 40.7734 53.8234V53.8234ZM39.4609 47.8438C39.5031 47.6313 39.5641 47.425 39.6203 47.2188L45.925 49.3078L47.7344 49.6156C47.725 49.6703 47.7219 49.7297 47.7156 49.7875L45.8703 49.6156L39.2469 50L45.8875 50.3844L47.7188 50.2141C47.725 50.2719 47.7281 50.3297 47.7375 50.3875L45.9156 50.6984L39.6219 52.7781C39.5672 52.5719 39.5063 52.3688 39.4625 52.1594C39.6633 52.1351 39.8462 52.0321 39.971 51.873C40.0959 51.7139 40.1524 51.5117 40.1281 51.3109C40.1039 51.1102 40.0009 50.9272 39.8418 50.8024C39.6827 50.6776 39.4805 50.6211 39.2797 50.6453C39.2672 50.4297 39.2469 50.2188 39.2469 50C39.2469 49.7813 39.2672 49.5703 39.2797 49.3547C39.4788 49.3762 39.6784 49.3184 39.8351 49.1937C39.9918 49.069 40.0931 48.8876 40.117 48.6888C40.1408 48.4899 40.0853 48.2897 39.9625 48.1315C39.8397 47.9733 39.6595 47.8699 39.4609 47.8438V47.8438ZM41.9594 57.1281C42.1096 57.0017 42.2056 56.8224 42.2274 56.6273C42.2492 56.4322 42.1952 56.2361 42.0766 56.0797C41.9555 55.9232 41.7785 55.8197 41.5827 55.7909C41.387 55.762 41.1877 55.8101 41.0266 55.925C40.9086 55.7444 40.7965 55.5599 40.6906 55.3719L46.6297 52.3891L48.1235 51.3281C48.1563 51.375 48.1985 51.4188 48.2344 51.4641L46.8094 52.6469L42.3938 57.6047L47.361 53.1812L48.536 51.7656C48.5797 51.8016 48.6219 51.8422 48.6688 51.875L47.6016 53.3813L44.6235 59.3078C44.4364 59.2018 44.2524 59.0903 44.0719 58.9734C44.1819 58.813 44.2264 58.6166 44.1963 58.4245C44.1662 58.2323 44.0639 58.0589 43.9102 57.9397C43.7565 57.8206 43.563 57.7646 43.3694 57.7834C43.1758 57.8021 42.9967 57.8942 42.8688 58.0406C42.5483 57.7543 42.2447 57.4496 41.9594 57.1281V57.1281ZM49.3563 60.7234C49.3721 60.528 49.3127 60.3339 49.1901 60.1808C49.0675 60.0277 48.8911 59.9273 48.6969 59.9C48.4993 59.8743 48.2994 59.9268 48.1399 60.0461C47.9803 60.1654 47.8735 60.3423 47.8422 60.5391C47.6297 60.4969 47.4235 60.4359 47.2172 60.3781L49.3078 54.0719L49.6156 52.2625C49.6719 52.2719 49.7297 52.275 49.7875 52.2797L49.6156 54.1297L49.9985 60.7531L50.386 54.1141L50.2141 52.2797C50.2719 52.2734 50.3297 52.2719 50.386 52.2609L50.6969 54.0875L52.7797 60.3797C52.5719 60.4344 52.3672 60.4953 52.1578 60.5391C52.1258 60.3426 52.0188 60.1663 51.8594 60.0471C51.7 59.9279 51.5006 59.8752 51.3031 59.9C51.1089 59.9265 50.9323 60.0269 50.8101 60.1803C50.6878 60.3336 50.6294 60.5281 50.6469 60.7234C50.4313 60.7359 50.2188 60.7562 50 60.7562C49.7828 60.7562 49.5703 60.7359 49.3563 60.7234V60.7234ZM57.1297 58.0391C56.9993 57.8999 56.8216 57.8145 56.6315 57.7994C56.4414 57.7844 56.2526 57.8408 56.1019 57.9577C55.9512 58.0746 55.8496 58.2435 55.8168 58.4313C55.7841 58.6192 55.8227 58.8125 55.925 58.9734C55.7438 59.0911 55.5594 59.2036 55.3719 59.3109L52.3906 53.3719L51.3266 51.875C51.3734 51.8422 51.4172 51.8016 51.461 51.7641L52.6469 53.1922L57.6031 57.6063L53.1813 52.6359L51.7625 51.4625C51.7984 51.4188 51.8406 51.375 51.8719 51.3281L53.3828 52.3984L59.3063 55.375C59.2007 55.561 59.0897 55.7439 58.9735 55.9234C58.8115 55.8103 58.6124 55.7634 58.417 55.7921C58.2215 55.8209 58.0444 55.9232 57.9219 56.0781C57.8028 56.2347 57.7485 56.4311 57.7703 56.6266C57.7922 56.8221 57.8884 57.0017 58.0391 57.1281C57.7563 57.45 57.4531 57.7531 57.1297 58.0391V58.0391ZM58.0391 42.8719C57.8896 42.9992 57.7944 43.1788 57.7729 43.3739C57.7514 43.5691 57.8053 43.7651 57.9234 43.9219C58.0445 44.0785 58.2218 44.1819 58.4178 44.2102C58.6137 44.2385 58.813 44.1894 58.9735 44.0734C59.0922 44.2531 59.2016 44.4391 59.3094 44.6266L53.3703 47.6094L51.875 48.6703C51.8422 48.625 51.8016 48.5813 51.7656 48.5359L53.1938 47.35L57.6063 42.3953L52.6375 46.8156L51.4625 48.2344C51.4188 48.1984 51.3766 48.1578 51.3297 48.125L52.4 46.6156L55.375 40.6938C55.5609 40.8 55.7438 40.9094 55.9235 41.0266C55.8052 41.1867 55.7542 41.3868 55.7815 41.584C55.8088 41.7813 55.9122 41.96 56.0695 42.082C56.2268 42.2041 56.4257 42.2597 56.6235 42.2371C56.8213 42.2145 57.0024 42.1153 57.1281 41.9609C57.45 42.2453 57.7516 42.5484 58.0391 42.8719V42.8719ZM50.6438 39.2781C50.6193 39.4785 50.6755 39.6804 50.7998 39.8393C50.9242 39.9983 51.1067 40.1013 51.307 40.1258C51.5074 40.1502 51.7093 40.0941 51.8682 39.9697C52.0272 39.8453 52.1303 39.6629 52.1547 39.4625C52.3688 39.5047 52.5734 39.5656 52.7813 39.6219L50.6922 45.925L50.3844 47.7359C50.3281 47.725 50.2703 47.7234 50.2141 47.7172L50.3844 45.8703L50 39.2453L49.6156 45.8859L49.786 47.7172C49.7281 47.7234 49.6703 47.725 49.6141 47.7359L49.3031 45.9125L47.2203 39.6219C47.4281 39.5672 47.6328 39.5063 47.8422 39.4625C47.8746 39.6584 47.9818 39.8341 48.1413 39.9525C48.3007 40.0709 48.5 40.1226 48.6969 40.0969C48.8909 40.0729 49.0679 39.9741 49.1899 39.8213C49.312 39.6686 49.3694 39.4742 49.35 39.2797C49.5672 39.2656 49.7797 39.2469 50 39.2469C50.2172 39.2453 50.4297 39.2656 50.6438 39.2781V39.2781ZM42.8719 41.9609C42.9986 42.1114 43.1783 42.2073 43.3738 42.2288C43.5692 42.2504 43.7655 42.1958 43.9219 42.0766C44.0784 41.9555 44.1819 41.7785 44.2107 41.5827C44.2395 41.387 44.1915 41.1877 44.0766 41.0266C44.2567 40.9085 44.4406 40.7965 44.6281 40.6906L47.6125 46.6281L48.6719 48.1219C48.625 48.1563 48.5828 48.1969 48.5375 48.2328L47.3531 46.8078L42.3985 42.3938L46.8234 47.3609L48.2375 48.5344C48.2016 48.5797 48.1594 48.6234 48.1266 48.6703L46.6188 47.6016L40.6953 44.625C40.8031 44.4391 40.911 44.2531 41.0297 44.0734C41.3672 44.3078 41.8281 44.2453 42.0797 43.9188C42.1991 43.7626 42.2535 43.5663 42.2317 43.371C42.2099 43.1756 42.1134 42.9963 41.9625 42.8703C42.2466 42.5487 42.5503 42.245 42.8719 41.9609"
                fill="currentColor" />
            <path
                d="M50 3.125C24.1125 3.125 3.125 24.1125 3.125 50C3.125 75.8875 24.1125 96.875 50 96.875C75.8875 96.875 96.875 75.8875 96.875 50C96.875 24.1125 75.8875 3.125 50 3.125ZM9.04219 34.6359H90.9578C92.7578 39.4203 93.75 44.5953 93.75 50C93.75 55.4047 92.7578 60.5797 90.9578 65.3641H9.04219C7.24219 60.5797 6.25 55.4047 6.25 50C6.25 44.5953 7.24219 39.4203 9.04219 34.6359Z"
                fill="currentColor" />
        </symbol>
        <symbol id="icon-china-mono" viewBox="0 0 100 100" fill="none">
            <path
                d="M50 3.125C24.1125 3.125 3.125 24.1125 3.125 50C3.125 75.8875 24.1125 96.875 50 96.875C75.8875 96.875 96.875 75.8875 96.875 50C96.875 24.1125 75.8875 3.125 50 3.125ZM54.9672 14.6609L57.1938 17.3703L60.5844 16.075L58.5516 19.0234L60.7547 21.7109L57.2078 20.9094L55.1109 23.8781L55.0266 20.3797L51.5359 19.5187L54.9797 18.1969L54.9672 14.6609V14.6609ZM46.9781 53.0734L34.6344 44.425L22.2891 53.0734L26.95 39.0047L14.6594 30.0266H30.0234L34.6328 16.1984L39.3813 30.0266H54.6078L42.3172 39.0047L46.9781 53.0734V53.0734ZM60.5828 59.3406L57.1734 58.0703L54.9672 60.7562L54.9797 57.2187L51.5359 55.8937L55.0266 55.0359L55.1141 51.5375L57.2078 54.5047L60.7547 53.7047L58.5312 56.4141L60.5828 59.3406V59.3406ZM63.4406 46.4891L62.6891 50L61.1969 46.65L57.6813 46.9234L60.3094 44.5719L58.8984 41.225L61.9531 43.1047L64.6547 40.7813L63.9 44.325L66.9031 46.1797L63.4406 46.4891V46.4891ZM63.3641 32.7453L62.2391 36.1719L61.1828 32.6828L57.6813 32.5625L60.5266 30.5016L59.5234 26.9547L62.3578 29.1969L65.1625 27.175L64.0875 30.5656L66.8984 32.7922L63.3641 32.7453"
                fill="currentColor" />
        </symbol>
        <symbol id="icon-greece-mono" viewBox="0 0 101 100" fill="none">
            <path
                d="M50.75 3.125C24.8625 3.125 3.875 24.1125 3.875 50C3.875 75.8875 24.8625 96.875 50.75 96.875C76.6375 96.875 97.625 75.8875 97.625 50C97.625 24.1125 76.6375 3.125 50.75 3.125ZM84.6203 22.3422H50.75V31.5609H90.4109C91.7884 34.5075 92.8294 37.5999 93.5141 40.7797H50.75V31.5609H32.3125V50H94.5C94.5 53.1609 94.1547 56.2438 93.5141 59.2188H7.98594C7.33167 56.1894 7.00116 53.0992 7 50H23.0938V31.5625H11.0891C12.6287 28.2606 14.5745 25.1637 16.8813 22.3438H23.0938V16.1313C25.9141 13.8251 29.0109 11.8793 32.3125 10.3391V22.3438H50.75V13.125H74.2469C78.17 15.6299 81.6713 18.7409 84.6203 22.3422V22.3422ZM16.8797 77.6563C14.574 74.8355 12.6283 71.7388 11.0875 68.4375H90.4125C88.8728 71.7391 86.9276 74.8358 84.6219 77.6563H16.8797ZM27.2516 86.875H74.2484C67.2361 91.3708 59.0797 93.7571 50.75 93.75C42.4203 93.7571 34.2639 91.3708 27.2516 86.875V86.875Z"
                fill="currentColor" />
        </symbol>
        <symbol id="icon-italy-mono" viewBox="0 0 101 100" fill="none">
            <path
                d="M50.75 3.125C24.8625 3.125 3.875 24.1125 3.875 50C3.875 75.8875 24.8625 96.875 50.75 96.875C76.6375 96.875 97.625 75.8875 97.625 50C97.625 24.1125 76.6375 3.125 50.75 3.125ZM35.3844 90.9578V9.04219C40.1688 7.24219 45.3453 6.25 50.75 6.25C56.1547 6.25 61.3297 7.24219 66.1141 9.04219V90.9578C61.3297 92.7578 56.1547 93.75 50.75 93.75C45.3453 93.75 40.1688 92.7578 35.3844 90.9578Z"
                fill="currentColor" />
        </symbol>
        <symbol id="icon-mexico" viewBox="0 0 100 100" fill="none">
            <path
                d="M96.875 50C96.875 29.5312 83.9062 12.1875 65.625 5.78125V94.2187C83.9062 87.8125 96.875 70.4687 96.875 50Z"
                fill="#ED4C5C" />
            <path d="M3.125 50C3.125 70.4687 16.25 87.8125 34.375 94.2187V5.78125C16.25 12.1875 3.125 29.5312 3.125 50Z"
                fill="#75A843" />
            <path
                d="M65.625 5.78125C60.7813 4.0625 55.4688 3.125 50 3.125C44.5312 3.125 39.2187 4.0625 34.375 5.78125V94.2187C39.2187 95.9375 44.5312 96.875 50 96.875C55.4688 96.875 60.7813 95.9375 65.625 94.2187V5.78125Z"
                fill="white" />
            <path
                d="M63.5938 49.5313C63.4375 49.0625 63.2812 49.6875 63.2812 49.8437C63.2812 49.375 63.125 49.0625 62.8125 48.5938C62.3438 49.0625 62.1875 49.6875 62.1875 50.3125C62.0312 49.8438 61.875 49.375 61.4062 49.2187C61.7187 49.6875 61.5625 50 61.5625 50.4687C61.5625 51.0937 62.0313 51.5625 62.0313 52.1875C62.0313 52.8125 61.7188 53.2813 61.25 53.75V53.2812C59.6875 53.9062 60 54.6875 60 56.0938C60 57.5 59.2187 57.1875 58.2812 57.9687C58.4375 57.6562 58.4375 57.1875 58.2812 56.875C58.2812 57.8125 57.0313 57.8125 56.875 58.5937C56.7188 58.9062 56.875 59.5313 56.4062 59.6875C56.0937 59.8438 55.625 60.1563 55.625 60.4688C55.3125 60.3125 55 60.3125 54.5313 60.3125C54.6875 60.1562 54.8438 60.1563 55 60C53.4375 59.2188 52.9687 60.9375 51.5625 61.0937C51.0937 61.0937 50 60.4687 50 61.0937C51.4062 61.0937 52.0313 62.3438 53.125 62.3438C54.0625 62.3438 54.8438 61.5625 55.7813 61.5625C55.625 61.5625 55.1563 61.25 54.6875 61.25C55.4688 60.7813 55.9375 59.8437 56.875 59.8437C58.4375 59.8437 59.2188 59.5312 59.6875 57.9687C59.5313 57.9687 59.375 57.9688 59.2188 58.125C59.2188 57.5 59.8438 56.7187 60.4688 56.4062C62.0313 56.0937 61.875 54.8438 62.8125 53.75C62.5 53.75 62.1875 53.9063 61.875 54.2188C61.875 53.2813 61.7188 52.3437 62.5 51.7187C64.0625 50.9375 63.9063 50.625 63.5938 49.5313V49.5313Z"
                fill="#75A843" />
            <path
                d="M36.4062 49.5313C36.0937 50.7813 35.9375 51.0938 37.1875 51.875C38.125 52.5 37.8125 53.4375 37.8125 54.375C37.5 54.0625 37.3437 53.9062 36.875 53.9062C37.8125 54.8437 37.6562 56.25 39.2187 56.5625C39.6875 56.875 40.4687 57.6562 40.4687 58.2812C40.3125 58.2812 40.1562 58.125 40 58.125C40.4687 59.6875 41.25 60 42.8125 60C43.75 60 44.2187 60.9375 45 61.4062C44.5312 61.4062 44.0625 61.5625 43.9062 61.7187C44.8437 61.7187 45.625 62.6562 46.5625 62.5C47.6562 62.5 48.4375 61.25 49.6875 61.25C49.6875 60.625 48.5937 61.25 48.125 61.25C46.875 60.9375 46.4062 59.375 44.6875 60C44.8437 60.1563 45 60.3125 45.1562 60.3125C44.8437 60.3125 44.375 60.1563 44.0625 60.4688C43.9062 60.1563 43.5937 59.8438 43.2812 59.6875C42.9687 59.375 42.9687 58.9062 42.8125 58.5937C42.5 57.8125 41.4062 57.6563 41.4062 56.875C41.25 57.1875 41.25 57.6562 41.4062 57.9687C40.4687 57.1875 39.6875 57.5 39.6875 56.0938C39.6875 54.8438 40 53.9062 38.4375 53.2812V53.75C37.9687 53.2813 37.6562 52.9688 37.6562 52.1875C37.6562 51.5625 38.2812 51.0937 38.125 50.4687C38.125 50 37.9687 49.6875 38.2812 49.2187C37.8125 49.375 37.6562 49.8438 37.5 50.3125C37.5 49.6875 37.3437 49.0625 36.875 48.5938C36.7187 48.9063 36.5625 49.375 36.4062 49.8437C36.5625 49.5312 36.4062 49.0625 36.4062 49.5313V49.5313Z"
                fill="#75A843" />
            <path
                d="M54.2188 58.9063C53.9063 58.9063 53.75 58.5938 53.5937 58.4375C53.5937 58.125 54.8438 57.8125 55 57.8125V57.5C52.9688 58.125 46.875 58.5937 45.625 56.4062C45 57.3437 43.9062 56.7188 42.8125 55.9375C42.9688 56.25 43.5938 57.8125 43.5938 57.6563C43.9063 57.8125 45.9375 58.2812 45.9375 58.75L45.4688 59.2188C48.75 60.3125 50.7813 60.625 54.2188 58.9063Z"
                fill="#428BC1" />
            <path
                d="M52.1875 58.9062C52.3438 58.75 52.3438 58.5937 52.3438 58.2812L52.1875 57.8125C52.5 57.5 52.1875 56.7187 51.7187 56.875C51.4062 57.0312 51.5625 57.0312 51.25 56.875C51.0937 56.875 51.0937 56.7187 50.9375 56.7187H48.125C47.8125 56.7187 47.8125 56.5625 47.5 56.5625C47.1875 56.4062 47.0313 56.7187 46.875 56.875C46.875 57.1875 47.0313 57.1875 47.0313 57.3437C47.0313 57.5 46.875 57.6562 46.875 57.9687C46.875 58.2812 47.0313 58.4375 47.1875 58.5937C46.5625 59.0625 47.1875 59.8437 47.8125 59.375C47.9688 59.6875 48.4375 59.6875 48.9062 59.6875H50.625C50.9375 59.6875 51.5625 59.8437 51.7187 59.375C52.1875 60.1562 52.8125 59.2187 52.1875 58.9062Z"
                fill="#ED4C5C" />
            <path
                d="M57.1875 54.8437C55.9375 53.2812 55.3125 55.625 53.9063 55.4687C54.2188 53.5937 51.4063 54.2187 50.625 54.6875C50.7813 54.5312 50.9375 54.2187 51.0938 53.9062C50.4688 53.9062 49.6875 54.2187 49.2188 53.75C48.2813 53.125 47.0313 52.8125 46.25 53.9062C45.625 52.9687 43.9063 52.0312 42.9688 52.9687C42.9688 52.0312 42.0313 50.625 40.9375 50.7812C39.6875 50.9375 40.1563 52.5 40.7813 53.125C41.25 53.5937 41.875 53.75 42.5 53.75C42.5 54.0625 42.6563 54.2187 42.8125 54.375C43.5938 55 45.1563 55.1562 45.9375 54.5312C45.9375 56.0937 49.0625 56.0937 49.8438 55.3125C49.5313 56.0937 49.2188 57.6562 50.3125 57.6562C51.25 57.6562 50.9375 56.7187 51.7188 56.4062C52.3438 56.0937 53.125 55.9375 53.75 56.25C54.8438 56.875 58.2813 56.7187 57.1875 54.8437"
                fill="#428BC1" />
            <path
                d="M44.375 50.9375C44.2187 50.625 43.9063 50.3125 43.9063 50.3125C43.2813 50.4688 43.2813 50 43.125 49.5313C42.9688 48.75 41.875 48.4375 41.875 47.8125C41.875 47.1875 42.5 46.5625 42.0312 45.9375C41.5625 45.3125 40.7813 45 40.7813 45.3125C40.625 45.625 41.4063 45.625 41.4063 46.4063C41.4063 47.3438 40.4688 48.125 41.5625 48.9063C42.1875 49.8438 42.1875 51.5625 43.2813 51.5625C43.75 51.5625 44.2187 51.4063 44.375 50.9375"
                fill="#75A843" />
            <path
                d="M46.7187 50.1563C46.4062 49.5313 46.7187 48.5938 46.0937 48.125C45.3125 47.5 43.75 48.75 43.5937 47.1875C43.5937 46.875 45.3125 45 45.625 44.8438C46.0937 44.2188 45.9375 43.125 45.4687 42.8125C44.8437 42.5 44.6875 42.8125 44.2187 43.4375C44.375 43.5938 45 43.9063 45 44.0625C44.5312 45.1563 43.125 45.3125 42.8125 46.4063C42.5 47.1875 42.6562 48.4375 43.4375 48.9063C43.9062 49.2188 44.2187 49.2188 44.6875 49.2188C46.0937 49.0625 45.3125 49.375 45.4687 49.6875C45.4687 50 45.9375 51.0938 46.7187 50.1563"
                fill="#75A843" />
            <path
                d="M42.0312 42.5C42.0312 43.4375 42.9687 43.2813 43.5937 43.125C43.5937 42.8125 43.5937 42.5 43.75 42.1875C43.4375 42.3438 42.9687 42.3438 42.8125 42.1875C42.3437 41.875 43.9062 41.25 43.75 41.25C43.75 41.25 42.1875 42.0313 42.8125 41.0938C42.9687 40.7813 43.2812 40.4688 43.4375 40.1563C43.5937 39.8438 42.9687 40.1563 42.9687 40.1563C42.8125 40.1563 42.6562 40.1563 42.5 40.3125C41.5625 41.0938 41.875 41.5625 42.0312 42.5"
                fill="#75A843" />
            <path
                d="M58.5937 42.5C57.8125 41.4063 54.8437 37.8125 50.625 37.5C50.1562 37.5 48.9062 37.9687 48.4375 38.125C47.0312 39.0625 50 39.8437 50.1562 40.4687C50.1562 40.7812 50.3125 40.9375 50.3125 41.25C49.8437 40.4687 49.375 40 49.2187 39.6875C48.4375 40 47.1875 39.5312 47.0312 38.75C46.875 39.0625 46.875 39.2187 46.5625 39.5312C46.5625 39.0625 46.4062 39.0625 46.25 38.75C46.25 39.2187 46.25 39.8438 45.7812 40C45.9375 39.6875 45.7812 39.375 45.625 39.0625C45.625 39.5313 45.625 39.8438 45.3125 40.1563C45.4687 39.8438 45.1562 39.6875 45.1562 39.375C45 40.625 43.2812 41.0938 45 41.5625C45.625 41.7188 45.9375 41.5625 46.5625 41.875C46.7187 42.0312 47.0312 42.3438 47.0312 42.1875C47.0312 42.3438 46.4062 42.9688 46.875 43.125C46.7187 43.2813 46.25 44.2187 46.25 44.2187C46.7187 44.2187 46.4062 44.5313 46.0937 44.8438C45.625 45.625 46.0937 46.4062 46.25 47.3437C46.25 47.0312 46.7187 47.5 46.7187 47.9688C46.7187 48.5938 47.3437 48.9063 47.5 49.375C46.7187 48.5938 46.5625 49.375 47.5 49.8437C46.7187 49.8437 46.5625 50.3125 47.3437 50.625C45.4687 50.625 47.0312 51.4062 47.3437 51.5625C48.5937 51.875 49.5312 50.9375 49.5312 50.7812C49.5312 50.7812 52.0312 53.2812 52.1875 53.2812C52.3437 53.2812 53.5937 52.6563 53.9062 52.9688C54.2187 53.4375 54.5312 52.9687 54.8437 53.125C55.1562 53.4375 56.4062 53.125 56.7187 52.9688C56.875 52.9688 58.4375 52.6563 58.125 52.3438C57.3437 51.7187 56.4062 51.0937 55.625 50.4687C54.8437 49.8437 54.0625 49.375 53.4375 48.75C53.125 48.4375 53.125 47.8125 52.9687 47.3437C54.375 48.75 55.7812 49.5313 55.625 46.875C56.5625 47.6562 58.4375 52.0312 58.5937 52.0312C59.0625 52.0312 58.5937 47.3438 58.5937 46.875C59.2187 47.5 59.2187 52.6563 59.375 52.6563C60.1562 52.8125 61.25 45.9375 58.5937 42.5"
                fill="#89664C" />
            <path
                d="M47.3438 50.4687C47.1875 50.4687 46.4063 49.375 46.4063 49.2187C46.875 51.0937 45 50 45.4688 49.2187C44.8438 49.0625 43.2813 50 43.9063 50.9375C43.5938 51.5625 46.0938 51.0937 46.25 50.7812C46.875 52.1875 48.4375 50.625 47.3438 50.4687"
                fill="#FFCE31" />
            <path
                d="M54.6875 55.1563C55.4688 54.0625 52.1875 53.75 52.5 52.5C52.0313 52.8125 51.4063 53.9063 50.7813 53.5938C50.4688 53.4375 49.2188 54.2188 49.8438 54.6875C49.8438 54.0625 50.1563 54.5313 50.625 54.375C50.4688 54.8438 50 55.3125 50.7813 55.625C50.4688 54.6875 51.7188 55.1563 51.5625 54.6875C51.25 54.375 52.6563 54.375 52.8125 54.375C53.2813 54.375 54.8438 54.8438 54.2188 55.3125C54.2188 55.3125 54.5313 55.3125 54.6875 55.1563"
                fill="#FFCE31" />
            <path
                d="M44.2188 41.7187C44.0625 42.0312 43.4375 42.5 43.4375 42.9687C43.4375 43.2812 44.2188 44.0625 44.5313 43.5937C43.5938 42.9687 44.6875 42.5 45.1563 42.5C45.3125 42.5 45.3125 42.8125 45.3125 42.8125C45.4688 42.9687 46.7188 42.5 46.5625 42.1875C46.7188 41.5625 44.6875 41.5625 44.2188 41.7187Z"
                fill="#FFCE31" />
        </symbol>
        <symbol id="icon-japan" viewBox="0 0 100 100" fill="none">
            <path
                d="M50 96.875C75.8884 96.875 96.875 75.8884 96.875 50C96.875 24.1117 75.8884 3.125 50 3.125C24.1117 3.125 3.125 24.1117 3.125 50C3.125 75.8884 24.1117 96.875 50 96.875Z"
                fill="#F5F5F5" />
            <path
                d="M50 68.75C60.3553 68.75 68.75 60.3553 68.75 50C68.75 39.6447 60.3553 31.25 50 31.25C39.6447 31.25 31.25 39.6447 31.25 50C31.25 60.3553 39.6447 68.75 50 68.75Z"
                fill="#ED4C5C" />
        </symbol>
        <symbol id="icon-usa" viewBox="0 0 100 100" fill="none">
            <path d="M75 10.3125C67.6563 5.78125 59.2188 3.125 50 3.125V10.3125H75Z" fill="#ED4C5C" />
            <path d="M50 17.5H83.75C81.0937 14.8437 78.125 12.3437 75 10.3125H50V17.5Z" fill="white" />
            <path d="M50 24.6875H89.5312C87.8125 22.0313 85.9375 19.6875 83.9063 17.5H50V24.6875Z" fill="#ED4C5C" />
            <path d="M50 31.875H93.2813C92.1875 29.375 90.9375 26.875 89.5312 24.6875H50V31.875Z" fill="white" />
            <path d="M50 39.0625H95.625C95 36.5625 94.2188 34.2188 93.2813 31.875H50V39.0625Z" fill="#ED4C5C" />
            <path d="M50 46.4063H96.7188C96.5625 43.9063 96.0938 41.5625 95.625 39.2188H50V46.4063" fill="white" />
            <path
                d="M96.7188 46.4062H50V50H3.125C3.125 51.25 3.125 52.3437 3.28125 53.5937H96.7188C96.875 52.3437 96.875 51.25 96.875 50C96.875 48.75 96.875 47.5 96.7188 46.4062"
                fill="#ED4C5C" />
            <path
                d="M4.375 60.7813H95.625C96.25 58.4375 96.5625 56.0938 96.7188 53.5938H3.28125C3.4375 55.9375 3.75 58.4375 4.375 60.7813Z"
                fill="white" />
            <path
                d="M6.71875 67.9687H93.2813C94.2188 65.625 95 63.2813 95.625 60.7812H4.375C5 63.2813 5.78125 65.625 6.71875 67.9687Z"
                fill="#ED4C5C" />
            <path
                d="M10.4687 75.1562H89.5312C90.9375 72.8125 92.1875 70.4688 93.2813 67.9688H6.71875C7.8125 70.4688 9.0625 72.8125 10.4687 75.1562"
                fill="white" />
            <path
                d="M16.0938 82.3438H83.9062C85.9375 80.1563 87.9687 77.6563 89.5312 75.1562H10.4688C12.0312 77.8125 14.0625 80.1563 16.0938 82.3438Z"
                fill="#ED4C5C" />
            <path
                d="M24.8437 89.5312H75.1562C78.4375 87.5 81.25 85 83.9063 82.3438H16.0938C18.75 85.1562 21.7187 87.5 24.8437 89.5312Z"
                fill="white" />
            <path
                d="M50 96.875C59.2188 96.875 67.8125 94.2188 75.1562 89.5312H24.8438C32.1875 94.2188 40.7813 96.875 50 96.875Z"
                fill="#ED4C5C" />
            <path
                d="M25 10.3125C21.7188 12.3437 18.75 14.8437 16.0938 17.5C13.9063 19.6875 12.0312 22.1875 10.4687 24.6875C9.0625 27.0313 7.65625 29.375 6.71875 31.875C5.78125 34.2187 5 36.5625 4.375 39.0625C3.75 41.4062 3.4375 43.75 3.28125 46.25C3.125 47.5 3.125 48.75 3.125 50H50V3.125C40.7812 3.125 32.3437 5.78125 25 10.3125Z"
                fill="#428BC1" />
            <path
                d="M39.0625 4.6875L39.8438 7.03125H42.1875L40.3125 8.59375L40.9375 10.9375L39.0625 9.53125L37.1875 10.9375L37.8125 8.59375L35.9375 7.03125H38.2812L39.0625 4.6875Z"
                fill="white" />
            <path
                d="M45.3125 14.0625L46.0938 16.4062H48.4375L46.5625 17.9688L47.1875 20.3125L45.3125 18.9063L43.4375 20.3125L44.0625 17.9688L42.1875 16.4062H44.5312L45.3125 14.0625Z"
                fill="white" />
            <path
                d="M32.8125 14.0625L33.5938 16.4062H35.9375L34.0625 17.9688L34.6875 20.3125L32.8125 18.9063L30.9375 20.3125L31.5625 17.9688L29.6875 16.4062H32.0312L32.8125 14.0625Z"
                fill="white" />
            <path
                d="M39.0625 23.4375L39.8438 25.7812H42.1875L40.3125 27.3438L40.9375 29.6875L39.0625 28.2813L37.1875 29.6875L37.8125 27.3438L35.9375 25.7812H38.2812L39.0625 23.4375Z"
                fill="white" />
            <path
                d="M26.5625 23.4375L27.3438 25.7812H29.6875L27.8125 27.3438L28.4375 29.6875L26.5625 28.2813L24.6875 29.6875L25.3125 27.3438L23.4375 25.7812H25.7812L26.5625 23.4375Z"
                fill="white" />
            <path
                d="M14.0625 23.4375L14.8438 25.7812H17.1875L15.3125 27.3438L15.9375 29.6875L14.0625 28.2813L12.1875 29.6875L12.8125 27.3438L10.9375 25.7812H13.2812L14.0625 23.4375Z"
                fill="white" />
            <path
                d="M45.3125 32.8125L46.0938 35.1562H48.4375L46.5625 36.7188L47.1875 39.0625L45.3125 37.6563L43.4375 39.0625L44.0625 36.7188L42.1875 35.1562H44.5312L45.3125 32.8125Z"
                fill="white" />
            <path
                d="M32.8125 32.8125L33.5938 35.1562H35.9375L34.0625 36.7188L34.6875 39.0625L32.8125 37.6563L30.9375 39.0625L31.5625 36.7188L29.6875 35.1562H32.0312L32.8125 32.8125Z"
                fill="white" />
            <path
                d="M20.3125 32.8125L21.0938 35.1562H23.4375L21.5625 36.7188L22.1875 39.0625L20.3125 37.6563L18.4375 39.0625L19.0625 36.7188L17.1875 35.1562H19.5312L20.3125 32.8125Z"
                fill="white" />
            <path
                d="M39.0625 42.1875L39.8438 44.5312H42.1875L40.3125 46.0938L40.9375 48.4375L39.0625 47.0313L37.1875 48.4375L37.8125 46.0938L35.9375 44.5312H38.2812L39.0625 42.1875Z"
                fill="white" />
            <path
                d="M26.5625 42.1875L27.3438 44.5312H29.6875L27.8125 46.0938L28.4375 48.4375L26.5625 47.0313L24.6875 48.4375L25.3125 46.0938L23.4375 44.5312H25.7812L26.5625 42.1875Z"
                fill="white" />
            <path
                d="M14.0625 42.1875L14.8438 44.5312H17.1875L15.3125 46.0938L15.9375 48.4375L14.0625 47.0313L12.1875 48.4375L12.8125 46.0938L10.9375 44.5312H13.2812L14.0625 42.1875Z"
                fill="white" />
            <path
                d="M18.4375 20.3125L20.3125 18.9063L22.1875 20.3125L21.4062 17.9688L23.2812 16.4062H20.9375L20.3125 14.0625L19.5312 16.4062H17.3438L19.2187 17.8125L18.4375 20.3125"
                fill="white" />
            <path
                d="M5.9375 39.0625L7.8125 37.6563L9.6875 39.0625L8.90625 36.7188L10.7812 35.1562H8.59375L7.8125 32.8125L7.03125 35.1562H5.46875C5.46875 35.3125 5.3125 35.4687 5.3125 35.625L6.5625 36.5625L5.9375 39.0625"
                fill="white" />
        </symbol>
        <symbol id="icon-italy" viewBox="0 0 101 100" fill="none">
            <path
                d="M3.40625 50C3.40625 70.4687 16.5312 87.8125 34.6562 94.2187V5.78125C16.5312 12.1875 3.40625 29.5312 3.40625 50Z"
                fill="#75A843" />
            <path
                d="M97.1562 50C97.1562 29.5312 84.0313 12.1875 65.9062 5.78125V94.2187C84.1875 87.8125 97.1562 70.4687 97.1562 50"
                fill="#ED4C5C" />
            <path
                d="M34.6562 94.2187C39.5 95.9375 44.8125 96.875 50.2812 96.875C55.75 96.875 61.0625 95.9375 65.9062 94.2187V5.78125C61.0625 4.0625 55.75 3.125 50.2812 3.125C44.8125 3.125 39.5 4.0625 34.6562 5.78125V94.2187"
                fill="white" />
        </symbol>
        <symbol id="icon-india" viewBox="0 0 100 100" fill="none">
            <path
                d="M49.6875 3.125C29.375 3.125 12.0312 16.25 5.625 34.375H94.0625C87.5 16.25 70.1562 3.125 49.6875 3.125Z"
                fill="#F2B200" />
            <path
                d="M49.6875 96.875C70.1562 96.875 87.5 83.9062 93.9062 65.625H5.625C12.0312 83.9062 29.375 96.875 49.6875 96.875Z"
                fill="#83BF4F" />
            <path
                d="M5.625 34.375C3.90625 39.2187 2.96875 44.5312 2.96875 50C2.96875 55.4688 3.90625 60.7813 5.625 65.625H94.0625C95.7812 60.7813 96.7188 55.4688 96.7188 50C96.7188 44.5312 95.7812 39.2187 94.0625 34.375H5.625Z"
                fill="white" />
            <path
                d="M49.6875 62.5C56.5911 62.5 62.1875 56.9036 62.1875 50C62.1875 43.0964 56.5911 37.5 49.6875 37.5C42.7839 37.5 37.1875 43.0964 37.1875 50C37.1875 56.9036 42.7839 62.5 49.6875 62.5Z"
                fill="#428BC1" />
            <path
                d="M49.6875 60.9375C55.7281 60.9375 60.625 56.0406 60.625 50C60.625 43.9594 55.7281 39.0625 49.6875 39.0625C43.6469 39.0625 38.75 43.9594 38.75 50C38.75 56.0406 43.6469 60.9375 49.6875 60.9375Z"
                fill="white" />
            <path
                d="M45.625 40.625C46.0565 40.625 46.4062 40.2752 46.4062 39.8438C46.4062 39.4123 46.0565 39.0625 45.625 39.0625C45.1935 39.0625 44.8438 39.4123 44.8438 39.8438C44.8438 40.2752 45.1935 40.625 45.625 40.625Z"
                fill="#428BC1" />
            <path
                d="M43.125 42.0312C43.5565 42.0312 43.9062 41.6815 43.9062 41.25C43.9062 40.8185 43.5565 40.4688 43.125 40.4688C42.6935 40.4688 42.3438 40.8185 42.3438 41.25C42.3438 41.6815 42.6935 42.0312 43.125 42.0312Z"
                fill="#428BC1" />
            <path
                d="M41.0938 44.0625C41.5252 44.0625 41.875 43.7127 41.875 43.2812C41.875 42.8498 41.5252 42.5 41.0938 42.5C40.6623 42.5 40.3125 42.8498 40.3125 43.2812C40.3125 43.7127 40.6623 44.0625 41.0938 44.0625Z"
                fill="#428BC1" />
            <path
                d="M39.6875 46.5625C40.119 46.5625 40.4688 46.2127 40.4688 45.7812C40.4688 45.3498 40.119 45 39.6875 45C39.256 45 38.9062 45.3498 38.9062 45.7812C38.9062 46.2127 39.256 46.5625 39.6875 46.5625Z"
                fill="#428BC1" />
            <path
                d="M38.9062 49.375C39.3377 49.375 39.6875 49.0252 39.6875 48.5938C39.6875 48.1623 39.3377 47.8125 38.9062 47.8125C38.4748 47.8125 38.125 48.1623 38.125 48.5938C38.125 49.0252 38.4748 49.375 38.9062 49.375Z"
                fill="#428BC1" />
            <path
                d="M38.9062 52.1875C39.3377 52.1875 39.6875 51.8377 39.6875 51.4062C39.6875 50.9748 39.3377 50.625 38.9062 50.625C38.4748 50.625 38.125 50.9748 38.125 51.4062C38.125 51.8377 38.4748 52.1875 38.9062 52.1875Z"
                fill="#428BC1" />
            <path
                d="M39.6875 55C40.119 55 40.4688 54.6502 40.4688 54.2188C40.4688 53.7873 40.119 53.4375 39.6875 53.4375C39.256 53.4375 38.9062 53.7873 38.9062 54.2188C38.9062 54.6502 39.256 55 39.6875 55Z"
                fill="#428BC1" />
            <path
                d="M41.0938 57.5C41.5252 57.5 41.875 57.1502 41.875 56.7188C41.875 56.2873 41.5252 55.9375 41.0938 55.9375C40.6623 55.9375 40.3125 56.2873 40.3125 56.7188C40.3125 57.1502 40.6623 57.5 41.0938 57.5Z"
                fill="#428BC1" />
            <path
                d="M43.125 59.5312C43.5565 59.5312 43.9062 59.1815 43.9062 58.75C43.9062 58.3185 43.5565 57.9687 43.125 57.9687C42.6935 57.9687 42.3438 58.3185 42.3438 58.75C42.3438 59.1815 42.6935 59.5312 43.125 59.5312Z"
                fill="#428BC1" />
            <path
                d="M45.625 60.9375C46.0565 60.9375 46.4062 60.5877 46.4062 60.1562C46.4062 59.7248 46.0565 59.375 45.625 59.375C45.1935 59.375 44.8438 59.7248 44.8438 60.1562C44.8438 60.5877 45.1935 60.9375 45.625 60.9375Z"
                fill="#428BC1" />
            <path
                d="M48.2812 61.5625C48.7127 61.5625 49.0625 61.2127 49.0625 60.7812C49.0625 60.3498 48.7127 60 48.2812 60C47.8498 60 47.5 60.3498 47.5 60.7812C47.5 61.2127 47.8498 61.5625 48.2812 61.5625Z"
                fill="#428BC1" />
            <path
                d="M50.4688 60.9375C50.4688 60.4687 50.7813 60.1563 51.0938 60C51.5625 60 51.875 60.3125 52.0312 60.625C52.0312 61.0937 51.7188 61.4062 51.4063 61.5625C50.7813 61.7188 50.4688 61.4062 50.4688 60.9375Z"
                fill="#428BC1" />
            <path
                d="M53.9062 60.9375C54.3377 60.9375 54.6875 60.5877 54.6875 60.1562C54.6875 59.7248 54.3377 59.375 53.9062 59.375C53.4748 59.375 53.125 59.7248 53.125 60.1562C53.125 60.5877 53.4748 60.9375 53.9062 60.9375Z"
                fill="#428BC1" />
            <path
                d="M56.4062 59.5312C56.8377 59.5312 57.1875 59.1815 57.1875 58.75C57.1875 58.3185 56.8377 57.9687 56.4062 57.9687C55.9748 57.9687 55.625 58.3185 55.625 58.75C55.625 59.1815 55.9748 59.5312 56.4062 59.5312Z"
                fill="#428BC1" />
            <path
                d="M58.4375 57.5C58.869 57.5 59.2188 57.1502 59.2188 56.7188C59.2188 56.2873 58.869 55.9375 58.4375 55.9375C58.006 55.9375 57.6562 56.2873 57.6562 56.7188C57.6562 57.1502 58.006 57.5 58.4375 57.5Z"
                fill="#428BC1" />
            <path
                d="M59.8438 55C60.2752 55 60.625 54.6502 60.625 54.2188C60.625 53.7873 60.2752 53.4375 59.8438 53.4375C59.4123 53.4375 59.0625 53.7873 59.0625 54.2188C59.0625 54.6502 59.4123 55 59.8438 55Z"
                fill="#428BC1" />
            <path
                d="M60.625 52.1875C61.0565 52.1875 61.4062 51.8377 61.4062 51.4062C61.4062 50.9748 61.0565 50.625 60.625 50.625C60.1935 50.625 59.8438 50.9748 59.8438 51.4062C59.8438 51.8377 60.1935 52.1875 60.625 52.1875Z"
                fill="#428BC1" />
            <path
                d="M60.625 49.375C60.1562 49.375 59.8438 49.0625 59.6875 48.75C59.6875 48.2813 60 47.9688 60.3125 47.8125C60.7812 47.8125 61.0937 48.125 61.25 48.4375C61.4063 48.9062 61.0937 49.2187 60.625 49.375Z"
                fill="#428BC1" />
            <path
                d="M59.8438 46.5625C60.2752 46.5625 60.625 46.2127 60.625 45.7812C60.625 45.3498 60.2752 45 59.8438 45C59.4123 45 59.0625 45.3498 59.0625 45.7812C59.0625 46.2127 59.4123 46.5625 59.8438 46.5625Z"
                fill="#428BC1" />
            <path
                d="M58.4375 44.0625C58.869 44.0625 59.2188 43.7127 59.2188 43.2812C59.2188 42.8498 58.869 42.5 58.4375 42.5C58.006 42.5 57.6562 42.8498 57.6562 43.2812C57.6562 43.7127 58.006 44.0625 58.4375 44.0625Z"
                fill="#428BC1" />
            <path
                d="M56.4062 42.0312C56.8377 42.0312 57.1875 41.6815 57.1875 41.25C57.1875 40.8185 56.8377 40.4688 56.4062 40.4688C55.9748 40.4688 55.625 40.8185 55.625 41.25C55.625 41.6815 55.9748 42.0312 56.4062 42.0312Z"
                fill="#428BC1" />
            <path
                d="M54.6875 40.1563C54.5313 40.625 54.0625 40.7813 53.5937 40.625C53.125 40.4688 52.9688 40 53.125 39.5312C53.2813 39.0625 53.75 38.9063 54.2188 39.0625C54.6875 39.375 54.8438 39.8438 54.6875 40.1563Z"
                fill="#428BC1" />
            <path
                d="M51.875 39.2187C51.875 39.6875 51.4062 40 50.9375 39.8437C50.4687 39.8437 50.1562 39.375 50.3125 38.9062C50.3125 38.4375 50.7812 38.125 51.25 38.2812C51.7187 38.4375 52.0312 38.9062 51.875 39.2187Z"
                fill="#428BC1" />
            <path
                d="M49.0625 39.0625C49.0625 39.5312 48.75 39.8437 48.4375 40C47.9688 40 47.6563 39.6875 47.5 39.375C47.5 38.9062 47.8125 38.5937 48.125 38.4375C48.5937 38.2812 49.0625 38.5937 49.0625 39.0625Z"
                fill="#428BC1" />
            <path
                d="M49.6875 52.3438C50.9819 52.3438 52.0312 51.2944 52.0312 50C52.0312 48.7056 50.9819 47.6562 49.6875 47.6562C48.3931 47.6562 47.3438 48.7056 47.3438 50C47.3438 51.2944 48.3931 52.3438 49.6875 52.3438Z"
                fill="#428BC1" />
            <path d="M49.6875 39.0625L49.375 45.7812L49.6875 50L50.1562 45.7812L49.6875 39.0625Z" fill="#428BC1" />
            <path d="M46.875 39.375L48.2812 46.0937L49.6875 50L49.0625 45.7812L46.875 39.375Z" fill="#428BC1" />
            <path d="M44.2188 40.4688L47.3438 46.5625L49.6875 50L47.9688 46.0938L44.2188 40.4688Z" fill="#428BC1" />
            <path d="M42.0312 42.1875L46.5625 47.3437L49.6875 50L47.0313 46.7187L42.0312 42.1875Z" fill="#428BC1" />
            <path d="M40.3125 44.5312L45.9375 48.2812L49.6875 50L46.25 47.5L40.3125 44.5312Z" fill="#428BC1" />
            <path d="M39.2188 47.1875L45.625 49.2187L49.6875 50L45.7812 48.5937L39.2188 47.1875Z" fill="#428BC1" />
            <path d="M38.75 50L45.625 50.3125L49.6875 50L45.625 49.6875L38.75 50Z" fill="#428BC1" />
            <path d="M39.2188 52.8125L45.7812 51.4063L49.6875 50L45.625 50.7812L39.2188 52.8125Z" fill="#428BC1" />
            <path d="M40.3125 55.4688L46.25 52.5L49.6875 50L45.9375 51.7187L40.3125 55.4688Z" fill="#428BC1" />
            <path d="M42.0312 57.6563L47.0313 53.2812L49.6875 50L46.5625 52.6563L42.0312 57.6563Z" fill="#428BC1" />
            <path d="M44.2188 59.5312L47.9688 53.75L49.6875 50L47.3438 53.4375L44.2188 59.5312Z" fill="#428BC1" />
            <path d="M46.875 60.625L49.0625 54.2188L49.6875 50L48.2812 53.9062L46.875 60.625Z" fill="#428BC1" />
            <path d="M49.6875 60.9375L50.1562 54.2188L49.6875 50L49.375 54.2188L49.6875 60.9375Z" fill="#428BC1" />
            <path d="M52.5 60.625L51.25 53.9062L49.6875 50L50.4688 54.2188L52.5 60.625Z" fill="#428BC1" />
            <path d="M55.1562 59.5312L52.1875 53.4375L49.6875 50L51.5625 53.9063L55.1562 59.5312Z" fill="#428BC1" />
            <path d="M57.5 57.6563L52.9688 52.6563L49.6875 50L52.5 53.2812L57.5 57.6563Z" fill="#428BC1" />
            <path d="M59.2188 55.4688L53.5938 51.7187L49.6875 50L53.125 52.5L59.2188 55.4688Z" fill="#428BC1" />
            <path d="M60.3125 52.8125L53.9063 50.7812L49.6875 50L53.75 51.4063L60.3125 52.8125Z" fill="#428BC1" />
            <path d="M60.625 50L53.9063 49.5312L49.6875 50L53.9063 50.3125L60.625 50Z" fill="#428BC1" />
            <path d="M60.3125 47.1875L53.75 48.5937L49.6875 50L53.9063 49.2187L60.3125 47.1875Z" fill="#428BC1" />
            <path d="M59.2188 44.5312L53.125 47.5L49.6875 50L53.5938 48.2812L59.2188 44.5312Z" fill="#428BC1" />
            <path d="M57.5 42.3438L52.5 46.7187L49.6875 50L52.9688 47.3437L57.5 42.3438Z" fill="#428BC1" />
            <path d="M55.1562 40.4688L51.5625 46.25L49.6875 50L52.1875 46.5625L55.1562 40.4688Z" fill="#428BC1" />
            <path d="M52.6563 39.375L50.4688 45.7812L49.6875 50L51.25 46.0937L52.6563 39.375Z" fill="#428BC1" />
        </symbol>
        <symbol id="icon-greece" viewBox="0 0 101 100" fill="none">
            <path d="M88.25 21.875H50.75V31.25H93.7188C92.3125 27.9688 90.4375 24.6875 88.25 21.875Z" fill="#428BC1" />
            <path d="M50.75 21.875H88.25C85.5937 18.2813 82.4687 15.1563 78.875 12.5H50.75V21.875Z" fill="#F9F9F9" />
            <path d="M93.7188 31.25H50.75V40.625H96.6875C96.0625 37.3438 94.9688 34.2187 93.7188 31.25Z"
                fill="#F9F9F9" />
            <path
                d="M7.78125 68.75H93.7188C94.9688 65.7813 96.0625 62.6562 96.6875 59.375H4.8125C5.4375 62.6562 6.53125 65.7813 7.78125 68.75Z"
                fill="#428BC1" />
            <path
                d="M13.25 78.125H88.25C90.4375 75.3125 92.3125 72.0312 93.7188 68.75H7.78125C9.1875 72.0312 11.0625 75.3125 13.25 78.125Z"
                fill="#F9F9F9" />
            <path
                d="M13.25 78.125C15.9063 81.7187 19.0313 84.8437 22.625 87.5H78.875C82.4687 84.8437 85.5937 81.7187 88.25 78.125H13.25Z"
                fill="#428BC1" />
            <path
                d="M22.625 87.5C30.4375 93.4375 40.125 96.875 50.75 96.875C61.375 96.875 71.0625 93.4375 78.875 87.5H22.625Z"
                fill="#F9F9F9" />
            <path
                d="M32 50V31.25H50.75V21.875H32V7.03125C28.7188 8.4375 25.4375 10.3125 22.625 12.5V21.875H13.25C11.0625 24.6875 9.1875 27.9688 7.78125 31.25H22.625V50H3.875C3.875 53.2812 4.1875 56.4063 4.8125 59.375H96.6875C97.3125 56.4063 97.625 53.2812 97.625 50H32Z"
                fill="#F9F9F9" />
            <path d="M96.6875 40.625H50.75V31.25H32V50H97.625C97.625 46.7188 97.3125 43.5937 96.6875 40.625Z"
                fill="#428BC1" />
            <path
                d="M50.75 3.125C44.0312 3.125 37.7813 4.53125 32 7.03125V21.875H50.75V12.5H78.875C71.0625 6.5625 61.375 3.125 50.75 3.125Z"
                fill="#428BC1" />
            <path d="M22.625 21.875V12.5C19.0313 15.1563 15.9063 18.2813 13.25 21.875H22.625Z" fill="#428BC1" />
            <path d="M7.78125 31.25C5.28125 37.0313 3.875 43.2812 3.875 50H22.625V31.25H7.78125Z" fill="#428BC1" />
        </symbol>
        <symbol id="icon-china" viewBox="0 0 100 100" fill="none">
            <path
                d="M50 96.875C75.8884 96.875 96.875 75.8884 96.875 50C96.875 24.1117 75.8884 3.125 50 3.125C24.1117 3.125 3.125 24.1117 3.125 50C3.125 75.8884 24.1117 96.875 50 96.875Z"
                fill="#ED4C5C" />
            <path
                d="M34.375 44.375L46.875 53.125L42.1875 38.75L54.6875 29.6875H39.2188L34.375 15.625L29.6875 29.6875H14.0625L26.5625 38.75L21.875 53.125L34.375 44.375Z"
                fill="#FFE62E" />
            <path
                d="M55.1562 55.1562L51.5625 55.9375L55 57.3438V60.9375L57.3438 58.2812L60.7813 59.5312L58.75 56.5625L60.9375 53.75L57.3438 54.5313L55.1562 51.5625V55.1562Z"
                fill="#FFE62E" />
            <path
                d="M60.4688 44.5312L57.8125 46.875L61.4062 46.5625L62.9687 50L63.5938 46.4063L67.1875 46.0938L64.0625 44.2187L64.8438 40.625L62.1875 42.9688L59.0625 41.0937L60.4688 44.5312Z"
                fill="#FFE62E" />
            <path
                d="M61.4062 32.3438L62.5 35.9375L63.5938 32.5H67.1875L64.375 30.3125L65.4688 26.7188L62.5 28.9062L59.6875 26.5625L60.7813 30.1562L57.8125 32.1875L61.4062 32.3438Z"
                fill="#FFE62E" />
            <path
                d="M55.1562 19.8437V23.4375L57.3438 20.4688L60.9375 21.25L58.75 18.4375L60.7813 15.4687L57.3438 16.875L55 14.0625V17.6563L51.5625 19.0625L55.1562 19.8437Z"
                fill="#FFE62E" />
        </symbol>

    </defs>
</svg>